<svg viewBox="0 0 18 15">
  <path fill-rule="evenodd" d="M17.429 1.72c-.64.29-1.33.488-2.053.576A3.66 3.66 0 0 0 16.948.268a7.045 7.045 0 0 1-2.272.889A3.527 3.527 0 0 0 12.066 0c-1.973 0-3.574 1.642-3.574 3.666 0 .288.03.567.092.835C5.612 4.348 2.978 2.89 1.214.67a3.733 3.733 0 0 0-.485 1.845A3.69 3.69 0 0 0 2.32 5.566 3.51 3.51 0 0 1 .7 5.109v.045c0 1.777 1.232 3.26 2.87 3.595a3.486 3.486 0 0 1-1.615.064c.454 1.456 1.774 2.516 3.339 2.545A7.06 7.06 0 0 1 0 12.878a9.953 9.953 0 0 0 5.481 1.646c6.578 0 10.174-5.586 10.174-10.432 0-.16-.003-.319-.01-.475A7.337 7.337 0 0 0 17.43 1.72"/>
</svg>
